<svg width="21" height="20" viewBox="0 0 21 20" fill="none" xmlns="http://www.w3.org/2000/svg">
<path d="M20.1216 10.7028C19.9772 10.5835 19.8023 10.5071 19.6166 10.4823C19.431 10.4576 19.2421 10.4855 19.0716 10.5628C18.0142 11.0467 16.8645 11.2957 15.7016 11.2928C13.5504 11.2902 11.4876 10.4372 9.96272 8.91989C8.43789 7.40255 7.57478 5.3439 7.56158 3.19279C7.56614 2.51862 7.65005 1.84733 7.81158 1.19279C7.84586 1.01833 7.833 0.837881 7.77434 0.670042C7.71567 0.502203 7.61332 0.35304 7.47782 0.23792C7.34233 0.122799 7.17859 0.0458858 7.00348 0.0151026C6.82837 -0.0156807 6.64821 0.000779741 6.48158 0.062788C4.91391 0.767696 3.55115 1.85955 2.52134 3.23577C1.49153 4.61199 0.82846 6.22741 0.59443 7.93027C0.360399 9.63313 0.563086 11.3675 1.18345 12.9706C1.80381 14.5736 2.82149 15.9926 4.14088 17.0943C5.46027 18.1959 7.03806 18.9442 8.72603 19.2686C10.414 19.593 12.1567 19.4831 13.7905 18.949C15.4243 18.415 16.8955 17.4743 18.066 16.2155C19.2364 14.9567 20.0676 13.4211 20.4816 11.7528C20.532 11.5618 20.5247 11.3601 20.4606 11.1733C20.3966 10.9864 20.2786 10.8227 20.1216 10.7028ZM10.6216 17.3928C8.94334 17.3809 7.30978 16.8507 5.94457 15.8745C4.57936 14.8984 3.54925 13.5241 2.99526 11.9399C2.44128 10.3557 2.39052 8.63897 2.84992 7.02479C3.30932 5.41061 4.25644 3.97789 5.56158 2.92279V3.19279C5.56423 5.88127 6.6334 8.45888 8.53444 10.3599C10.4355 12.261 13.0131 13.3301 15.7016 13.3328C16.4075 13.3354 17.1116 13.2616 17.8016 13.1128C17.1115 14.4183 16.078 15.5106 14.8127 16.2719C13.5474 17.0332 12.0983 17.4346 10.6216 17.4328V17.3928Z" fill="#1F2D2B"/>
</svg>
